# xmcd CD database file
#
# Track frame offsets:
#	150
#	16312
#	32390
#	42342
#	58337
#	74465
#	88365
#	102152
#	119947
#	141570
#	154110
#	177690
#	189787
#	196837
#
# Disc length: 2829 seconds
#
# Revision: 3
# Processed by: cddbd v1.5.2PL0 Copyright (c) Steve Scherf et al.
# Submitted via: CDex 1.70beta2
#
DISCID=d00b0b0e
DTITLE=Willie Nelson - Always On My Mind CD3
DYEAR=1999
DGENRE=Country
TTITLE0=Georgia On My Mind
TTITLE1=Stardust
TTITLE2=On The Road Again
TTITLE3=Always On My Mind
TTITLE4=Angel Flying Too Close To The Ground
TTITLE5=Good Hearted Woman
TTITLE6=Blue Eyes Crying In The Rain
TTITLE7=Red-Headed Stranger
TTITLE8=City Of New Orleans
TTITLE9=To All The Girls I´ve Loved Before
TTITLE10=´Till I Can Gain Control Again
TTITLE11=Seven Spanish Angels
TTITLE12=Luckenbach, Texas
TTITLE13=Whiskey River
EXTD=YEAR: 1999
EXTT0=
EXTT1=
EXTT2=
EXTT3=
EXTT4=
EXTT5=
EXTT6=
EXTT7=
EXTT8=
EXTT9=
EXTT10=
EXTT11=
EXTT12=
EXTT13=
PLAYORDER=
